<svg xmlns="http://www.w3.org/2000/svg" width="60" height="60" viewBox="0 0 60 60">
    <path  fill-rule="evenodd" d="M21.5 41c3.038 0 5.5 2.462 5.5 5.5S24.538 52 21.5 52 16 49.538 16 46.5s2.462-5.5 5.5-5.5zm18 0c3.038 0 5.5 2.462 5.5 5.5S42.538 52 39.5 52 34 49.538 34 46.5s2.462-5.5 5.5-5.5zM16 12h-4.667C10.597 12 10 11.328 10 10.5S10.597 9 11.333 9h5.334c.129 0 .253.02.371.059.145-.039.3-.059.462-.059.828 0 1.5.537 1.5 1.2V17H47.972C49.644 17 51 18.231 51 19.75c0 .33-.065.657-.193.966l-6.814 16.5C43.55 38.289 42.42 39 41.157 39H19.028C17.356 39 16 37.769 16 36.25V12z"/>
</svg>
