<svg width="20px" height="20px" viewBox="0 0 20 20" version="1.1" xmlns="http://www.w3.org/2000/svg" xmlns:xlink="http://www.w3.org/1999/xlink">
    <path d="M11.8,-7.27595761e-12 C12.304,-7.27595761e-12 12.3941223,0.226346968 12.3941223,0.571583252 L12.3947602,0.658904394 C12.4046475,1.15524108 12.5677876,2.31770469 15.2596,2.5595498 C15.953725,2.5595498 15.9971078,2.71930285 15.9998192,3.21683565 L16,4.57266601 L14.8,5.71527433 C14.2456,6.47319372 13.2870155,6.86565843 13.6,8 L16,13.717998 C15.9978338,14.0749984 13.9896965,15.6948007 11.0008539,15.9624838 L11,17.5 C13.1123534,17.6200261 14,18.2171746 14,18.75 C14,19.3761147 12.6629117,20 10,20 C7.33603744,20 6,19.3761147 6,18.75 C6,18.2171746 6.8854749,17.6200261 9,17.5 L9,17.5 L9.00014911,15.9625735 C6.10537296,15.7036272 4.13030035,14.1762433 4.00620356,13.7556144 L4,13.717998 L6.4,8 C6.69651165,6.92536062 5.85178128,6.51656086 5.2906514,5.83207024 L5.2,5.71527433 L4,4.57266601 L4.00018076,3.21683565 C4.00289219,2.71930285 4.046275,2.5595498 4.7404,2.5595498 C7.43221237,2.31770469 7.59535251,1.15524108 7.6052398,0.658904394 L7.60587769,0.571583252 C7.60587769,0.255116658 7.68160546,0.0385501149 8.08243509,0.00465337568 L8.2,-7.27595761e-12 L11.8,-7.27595761e-12 Z" id="fitting" fill="black"></path>
</svg>