<svg width="20" height="20" xmlns="http://www.w3.org/2000/svg">
    <path d="M11.8 0c.504 0 .594.226.594.572v.087c.01.496.174 1.659 2.866 1.9.694 0 .737.16.74.658v1.356l-1.2 1.142c-.554.758-1.513 1.15-1.2 2.285l2.4 5.718c-.002.357-2.01 1.977-5 2.244V17.5c2.112.12 3 .717 3 1.25 0 .626-1.337 1.25-4 1.25-2.664 0-4-.624-4-1.25 0-.533.885-1.13 3-1.25v-1.537c-2.895-.26-4.87-1.787-4.994-2.207L4 13.718 6.4 8c.297-1.075-.548-1.483-1.11-2.168l-.09-.117L4 4.573V3.217c.003-.498.046-.657.74-.657C7.432 2.318 7.595 1.155 7.605.659V.572c0-.317.077-.533.477-.567L8.2 0h3.6z" fill-rule="evenodd"/>
</svg>