<svg width="160" height="20" xmlns="http://www.w3.org/2000/svg"><g fill="#19191A" fill-rule="evenodd"><path d="M157.5 0a.5.5 0 01.5.5v19a.5.5 0 01-.5.5h-4.333a.5.5 0 01-.5-.5V16a1 1 0 00-1-1h-3.306a1 1 0 00-1 1v3.5a.5.5 0 01-.5.5H142.5a.5.5 0 01-.5-.5V.5a.5.5 0 01.5-.5h15zM147 7h-4v4h4V7zm5 0h-4v4h4V7zm5 0h-4v4h4V7zm-10-5h-4v4h4V2zm5 0h-4v4h4V2zm5 0h-4v4h4V2zM129.064.273a1.743 1.743 0 011.872 0l7.128 4.07c.576.328.936.946.936 1.6v8.142c0 .654-.36 1.272-.936 1.599l-7.128 4.07a1.908 1.908 0 01-1.872 0l-7.128-4.07a1.852 1.852 0 01-.936-1.6V5.944c0-.69.36-1.272.936-1.6zM126.391 6H125l2.087 8h1.23l1.673-6h.02l1.673 6h1.23L135 6h-1.35l-1.412 5.876h-.02L130.675 6h-1.31l-1.573 5.876h-.02L126.392 6zM110.057 2c1.712 0 3.058 1.125 2.935 2.75 0 1.625-1.59 2.625-2.568 3.375v2.882c2.883.092 5.733 1.122 7.895 3.09a2.251 2.251 0 010 3.226c-.453.387-1.058.645-1.815.645-.605 0-1.21-.258-1.815-.645-2.571-2.323-6.958-2.323-9.53 0-.907.903-2.57.903-3.478 0a2.251 2.251 0 010-3.226c1.977-1.8 4.528-2.814 7.154-3.046V8.25c.122-.625.122-1 .978-1.625s1.345-1 1.345-1.75-.49-1.125-1.223-1.125c-.611 0-1.1.375-1.1 1V5c0 .125-.123.25-.368.25h-1.1c-.245 0-.367 0-.367-.25v-.375C107 3.5 107.978 2 110.057 2zM85.5 15a2.5 2.5 0 110 5 2.5 2.5 0 010-5zm8 0a2.5 2.5 0 110 5 2.5 2.5 0 010-5zM83 1.25h-2.375a.625.625 0 110-1.25h2.5c.087 0 .169.018.244.05a.676.676 0 01.256-.05c.345 0 .625.252.625.563v3.443c.045-.004.09-.006.134-.006h13.232C98.38 4 99 4.56 99 5.25c0 .15-.03.299-.088.439l-3.115 7.5c-.203.488-.72.811-1.296.811H84.384C83.62 14 83 13.44 83 12.75V1.25zM71 4a1 1 0 011 1v2h5V5.8L80 4v12l-3-1.8V12h-5v3a1 1 0 01-1 1H61a1 1 0 01-1-1V5a1 1 0 011-1h10zm-7.875 1a1.875 1.875 0 100 3.75 1.875 1.875 0 000-3.75zM57 1a2 2 0 012 2v14a2 2 0 01-2 2H43a2 2 0 01-2-2V3a2 2 0 012-2h14zm-7.083 4H46.25v10h3.502c2.224 0 3.998-.918 3.998-2.839 0-1.398-.992-2.274-2.36-2.43v-.028c1.113-.282 1.864-1.073 1.864-2.175C53.254 5.621 51.526 5 49.917 5zm-.18 5.41c1.623 0 2.51.508 2.51 1.68 0 1.356-1.383 1.724-2.645 1.724h-1.864V10.41zm-.3-4.238c1.412 0 2.329.424 2.329 1.497 0 1.088-.947 1.554-2.09 1.554h-1.938v-3.05zM31.8 0c.504 0 .594.226.594.572v.087c.01.496.174 1.659 2.866 1.9.694 0 .737.16.74.658v1.356l-1.2 1.142c-.554.758-1.513 1.15-1.2 2.285l2.4 5.718c-.002.357-2.01 1.977-5 2.244V17.5c2.112.12 3 .717 3 1.25 0 .626-1.337 1.25-4 1.25-2.664 0-4-.624-4-1.25 0-.533.885-1.13 3-1.25v-1.537c-2.895-.26-4.87-1.787-4.994-2.207L24 13.718 26.4 8c.297-1.075-.548-1.483-1.11-2.168l-.09-.117L24 4.573V3.217c.003-.498.046-.657.74-.657 2.692-.242 2.855-1.405 2.865-1.901V.572c0-.317.077-.533.477-.567L28.2 0h3.6zM17 0a2 2 0 012 2v14a4 4 0 01-4 4H5a4 4 0 01-4-4V2a2 2 0 012-2h14zm-5 3c0 1.282-1.471 1.563-2 1.563-.529 0-2-.281-2-1.563l-2.73.724a2 2 0 00-1.445 1.53L3 9.25l2 1.042V8.5a.5.5 0 011 0V16h8V8.5a.5.5 0 111 0v1.792l2-1.042-.762-3.968a2 2 0 00-1.46-1.559z"/></g></svg>