<?xml version="1.0" encoding="UTF-8"?>
<svg width="160px" height="20px" viewBox="0 0 160 20" version="1.1" xmlns="http://www.w3.org/2000/svg" xmlns:xlink="http://www.w3.org/1999/xlink">
    <!-- Generator: Sketch 64 (93537) - https://sketch.com -->
    <title>icon/leftmenu</title>
    <desc>Created with Sketch.</desc>
    <g id="assets,-develop" stroke="none" stroke-width="1" fill="none" fill-rule="evenodd">
        <g id="Svg-Test" transform="translate(-48.000000, -38.000000)" fill="#19191A">
            <g id="icon/leftmenu" transform="translate(48.000000, 38.000000)">
                <path d="M157.5,7.27595761e-12 C157.776142,7.27590689e-12 158,0.223857625 158,0.5 L158,19.5 C158,19.7761424 157.776142,20 157.5,20 L153.166667,20 C152.890524,20 152.666667,19.7761424 152.666667,19.5 L152.666667,16 C152.666667,15.4477153 152.218951,15 151.666667,15 L148.361328,15 C147.809043,15 147.361328,15.4477153 147.361328,16 L147.361328,19.5 C147.361328,19.7761424 147.13747,20 146.861328,20 L142.5,20 C142.223858,20 142,19.7761424 142,19.5 L142,0.5 C142,0.223857625 142.223858,7.27600834e-12 142.5,7.27595761e-12 L157.5,7.27595761e-12 Z M147,7 L143,7 L143,11 L147,11 L147,7 Z M152,7 L148,7 L148,11 L152,11 L152,7 Z M157,7 L153,7 L153,11 L157,11 L157,7 Z M147,2 L143,2 L143,6 L147,6 L147,2 Z M152,2 L148,2 L148,6 L152,6 L152,2 Z M157,2 L153,2 L153,6 L157,6 L157,2 Z" id="company"></path>
                <path d="M129.064,0.272603362 C129.64,-0.0908677873 130.36,-0.0908677873 130.936,0.272603362 L130.936,0.272603362 L138.064,4.34348024 C138.64,4.67060427 139,5.28850522 139,5.94275329 L139,5.94275329 L139,14.084507 C139,14.7387551 138.64,15.3566561 138.064,15.6837801 L138.064,15.6837801 L130.936,19.754657 C130.36,20.081781 129.64,20.081781 129.064,19.754657 L129.064,19.754657 L121.936,15.6837801 C121.36,15.3566561 121,14.7387551 121,14.084507 L121,14.084507 L121,5.94275329 C121,5.25215811 121.36,4.67060427 121.936,4.34348024 L121.936,4.34348024 Z M126.391129,6 L125,6 L127.086694,14 L128.316532,14 L129.989919,8 L130.010081,8 L131.683468,14 L132.913306,14 L135,6 L133.649194,6 L132.237903,11.8757062 L132.217742,11.8757062 L130.675403,6 L129.364919,6 L127.792339,11.8757062 L127.772177,11.8757062 L126.391129,6 Z" id="workroom"></path>
                <path d="M110.057283,2 C111.769362,2 113.114567,3.125 112.992275,4.75 C112.992275,6.375 111.402488,7.375 110.424157,8.125 L110.424157,8.125 L110.424402,11.0067744 C113.306542,11.0988183 116.15654,12.1288183 118.319328,14.0967742 C119.226891,15 119.226891,16.4193548 118.319328,17.3225806 C117.865546,17.7096774 117.260504,17.9677419 116.504202,17.9677419 C115.89916,17.9677419 115.294118,17.7096774 114.689076,17.3225806 C112.117647,15 107.731092,15 105.159664,17.3225806 C104.252101,18.2258065 102.588235,18.2258065 101.680672,17.3225806 C100.773109,16.4193548 100.773109,15 101.680672,14.0967742 C103.657813,12.2977415 106.209251,11.2825532 108.834541,11.0512092 L108.83437,8.25 C108.956661,7.625 108.956661,7.25 109.812701,6.625 C110.66874,6 111.157905,5.625 111.157905,4.875 C111.157905,4.125 110.66874,3.75 109.934992,3.75 C109.323535,3.75 108.83437,4.125 108.83437,4.75 L108.83437,4.75 L108.83437,5 C108.83437,5.125 108.712079,5.25 108.467496,5.25 L108.467496,5.25 L107.366874,5.25 C107.122291,5.25 107,5.25 107,5 L107,5 L107,4.625 C107,3.5 107.978331,2 110.057283,2 Z" id="style"></path>
                <path d="M85.5,15 C86.8807119,15 88,16.1192881 88,17.5 C88,18.8807119 86.8807119,20 85.5,20 C84.1192881,20 83,18.8807119 83,17.5 C83,16.1192881 84.1192881,15 85.5,15 Z M93.5,15 C94.8807119,15 96,16.1192881 96,17.5 C96,18.8807119 94.8807119,20 93.5,20 C92.1192881,20 91,18.8807119 91,17.5 C91,16.1192881 92.1192881,15 93.5,15 Z M83,1.25 L80.625,1.25 C80.279822,1.25 80,0.970177969 80,0.625 C80,0.279822031 80.279822,7.27595761e-12 80.625,7.27595761e-12 L83.125,7.27595761e-12 C83.211578,7.27595761e-12 83.2940445,0.0176039982 83.3690151,0.0494278199 C83.446281,0.0177596825 83.5333361,7.27595761e-12 83.625,7.27595761e-12 C83.970178,7.27595761e-12 84.25,0.251839828 84.25,0.5625 L84.2507637,4.00575218 C84.2947547,4.00194673 84.3393468,4 84.3844424,4 L97.6155576,4 C98.380164,4 99,4.55964406 99,5.25 C99,5.39988994 98.9701418,5.54855798 98.9118514,5.6889043 L95.796856,13.1889043 C95.5942237,13.676784 95.0776595,14 94.5005622,14 L84.3844424,14 C83.619836,14 83,13.4403559 83,12.75 L83,1.25 Z" id="market"></path>
                <path d="M71,4 C71.5522847,4 72,4.44771525 72,5 L72,7 L77,7 L77,5.8 L80,4 L80,16 L77,14.2 L77,12 L72,12 L72,15 C72,15.5522847 71.5522847,16 71,16 L61,16 C60.4477153,16 60,15.5522847 60,15 L60,5 C60,4.44771525 60.4477153,4 61,4 L71,4 Z M63.125,5 C62.0894661,5 61.25,5.83946609 61.25,6.875 C61.25,7.91053391 62.0894661,8.75 63.125,8.75 C64.1605339,8.75 65,7.91053391 65,6.875 C65,5.83946609 64.1605339,5 63.125,5 Z" id="rendering"></path>
                <path d="M57,1 C58.1045695,1 59,1.8954305 59,3 L59,17 C59,18.1045695 58.1045695,19 57,19 L43,19 C41.8954305,19 41,18.1045695 41,17 L41,3 C41,1.8954305 41.8954305,1 43,1 L57,1 Z M49.9173347,5 L46.25,5 L46.25,15 L49.752004,15 C51.9764529,15 53.75,14.0819209 53.75,12.1610169 C53.75,10.7627119 52.758016,9.88700565 51.3902806,9.73163842 L51.3902806,9.73163842 L51.3902806,9.70338983 C52.502505,9.42090395 53.254008,8.6299435 53.254008,7.52824859 C53.254008,5.62146893 51.5255511,5 49.9173347,5 L49.9173347,5 Z M49.7369739,10.4096045 C51.3602204,10.4096045 52.246994,10.9180791 52.246994,12.0903955 C52.246994,13.4463277 50.8642285,13.8135593 49.6017034,13.8135593 L49.6017034,13.8135593 L47.737976,13.8135593 L47.737976,10.4096045 Z M49.4363727,6.17231638 C50.8491984,6.17231638 51.7660321,6.5960452 51.7660321,7.66949153 C51.7660321,8.75706215 50.8191383,9.22316384 49.6768537,9.22316384 L49.6768537,9.22316384 L47.737976,9.22316384 L47.737976,6.17231638 Z" id="brand"></path>
                <path d="M31.8,-7.27595761e-12 C32.304,-7.27595761e-12 32.3941223,0.226346968 32.3941223,0.571583252 L32.3947602,0.658904394 C32.4046475,1.15524108 32.5677876,2.31770469 35.2596,2.5595498 C35.953725,2.5595498 35.9971078,2.71930285 35.9998192,3.21683565 L36,4.57266601 L34.8,5.71527433 C34.2456,6.47319372 33.2870155,6.86565843 33.6,8 L36,13.717998 C35.9978338,14.0749984 33.9896965,15.6948007 31.0008539,15.9624838 L31,17.5 C33.1123534,17.6200261 34,18.2171746 34,18.75 C34,19.3761147 32.6629117,20 30,20 C27.3360374,20 26,19.3761147 26,18.75 C26,18.2171746 26.8854749,17.6200261 29,17.5 L29,17.5 L29.0001491,15.9625735 C26.105373,15.7036272 24.1303004,14.1762433 24.0062036,13.7556144 L24,13.717998 L26.4,8 C26.6965117,6.92536062 25.8517813,6.51656086 25.2906514,5.83207024 L25.2,5.71527433 L24,4.57266601 L24.0001808,3.21683565 C24.0028922,2.71930285 24.046275,2.5595498 24.7404,2.5595498 C27.4322124,2.31770469 27.5953525,1.15524108 27.6052398,0.658904394 L27.6058777,0.571583252 C27.6058777,0.255116658 27.6816055,0.0385501149 28.0824351,0.00465337568 L28.2,-7.27595761e-12 L31.8,-7.27595761e-12 Z" id="fitting"></path>
                <path d="M17,7.27595761e-12 C18.1045695,7.27575471e-12 19,0.8954305 19,2 L19,16 C19,18.209139 17.209139,20 15,20 L5,20 C2.790861,20 1,18.209139 1,16 L1,2 C1,0.8954305 1.8954305,7.27616052e-12 3,7.27595761e-12 L17,7.27595761e-12 Z M12,3 C12,4.28204921 10.5289375,4.5625 10,4.5625 C9.4710625,4.5625 8,4.28204921 8,3 L8,3 L5.27076606,3.7243559 C4.53812298,3.91880399 3.97836817,4.51072585 3.82511769,5.25308038 L3.82511769,5.25308038 L3,9.25 L5,10.2916667 L5,8.5 C5,8.22385763 5.22385763,8 5.5,8 C5.77614237,8 6,8.22385763 6,8.5 L6,8.5 L6,16 L14,16 L14,8.5 C14,8.22385763 14.2238576,8 14.5,8 C14.7761424,8 15,8.22385763 15,8.5 L15,8.5 L15,10.2916667 L17,9.25 L16.2381005,5.28177365 C16.0926495,4.52421612 15.5244958,3.91783745 14.7779987,3.72343716 L14.7779987,3.72343716 Z" id="assortment"></path>
            </g>
        </g>
    </g>
</svg>