<svg xmlns="http://www.w3.org/2000/svg" width="60" height="60" viewBox="0 0 60 60">
    <path  fill-rule="evenodd" d="M48 11c1.105 0 2 .895 2 2v35c0 1.105-.895 2-2 2H13c-1.105 0-2-.895-2-2V13c0-1.105.895-2 2-2h35zm-17.176 8H23v22h7.47c4.746 0 8.53-2.02 8.53-6.246 0-3.076-2.116-5.003-5.034-5.344v-.063c2.373-.621 3.976-2.361 3.976-4.785 0-4.195-3.687-5.562-7.118-5.562zm-.385 11.901c3.463 0 5.355 1.119 5.355 3.698 0 2.983-2.95 3.79-5.644 3.79h-3.976v-7.488zm-.641-9.322c3.014 0 4.97.932 4.97 3.294 0 2.393-2.02 3.418-4.457 3.418h-4.137v-6.712z"/>
</svg>
