<svg xmlns="http://www.w3.org/2000/svg" width="60" height="60" viewBox="0 0 60 60" >
    <path d="M48 9c1.105 0 2 .895 2 2v37c0 2.21-1.79 4-4 4H15c-2.21 0-4-1.79-4-4V11c0-1.105.895-2 2-2h35zm-12.714 6c0 2.761-3.153 3.365-4.286 3.365-1.133 0-4.286-.604-4.286-3.365L19.5 16.925c-.732.195-1.291.788-1.444 1.53L16 28.462l4.286 2.243v-3.864c0-.592.48-1.072 1.071-1.072.592 0 1.072.48 1.072 1.072V43H39.57V26.84c0-.591.48-1.07 1.072-1.07.592 0 1.071.479 1.071 1.07v3.865L46 28.462l-1.906-9.978c-.145-.758-.712-1.365-1.458-1.56z"/>
</svg>
